# xmcd
#
# Track frame offsets: 
#        150
#        16819
#        32298
#        49389
#        66965
#        79865
#        92178
#        102542
#        116472
#        129852
#        142140
#        158275
#        169717
#        184987
#        195798
#        208921
#
# Disc length: 2995 seconds
#
# Revision: 0
# Processed by: cddbd v1.5.2PL0 Copyright (c) Steve Scherf et al.
# Submitted via: ExactAudioCopyFreeDBPlugin 1.0
#
DISCID=d20bb110
DTITLE=Johnny Bremner - Sings Country Gospel
DYEAR=2013
DGENRE=
TTITLE0=A Little Spot In Heaven Close To You
TTITLE1=Amazing Grace
TTITLE2=Come See Me
TTITLE3=Put It In Gods Hands
TTITLE4=If We Never Meet Again This Side Of Heaven
TTITLE5=The Lifeboat Song
TTITLE6=Where The Soul Never Dies
TTITLE7=Never Grow Old
TTITLE8=Pass Me Not
TTITLE9=When They Ring Those Golden Bells
TTITLE10=Who Am I
TTITLE11=With His Hand On My Shoulder
TTITLE12=It Was His Blood
TTITLE13=Little Delta Church
TTITLE14=He Will Do For You What He's Done For Me
TTITLE15=Will I Be Saved
EXTD=
EXTT0=
EXTT1=
EXTT2=
EXTT3=
EXTT4=
EXTT5=
EXTT6=
EXTT7=
EXTT8=
EXTT9=
EXTT10=
EXTT11=
EXTT12=
EXTT13=
EXTT14=
EXTT15=
PLAYORDER=
